<mxfile host="app.diagrams.net" modified="2023-08-04T09:38:18.890Z" agent="Mozilla/5.0 (Windows NT 10.0; Win64; x64) AppleWebKit/537.36 (KHTML, like Gecko) Chrome/115.0.0.0 Safari/537.36 Edg/115.0.1901.188" version="21.6.6" etag="I1aTPpVbjvz9H2bUnFvY" type="github">
  <diagram name="第 1 页" id="q7effPH_QWUKM_mtU7GO">
    <mxGraphModel>
      <root>
        <mxCell id="0" />
        <mxCell id="1" parent="0" />
      </root>
    </mxGraphModel>
  </diagram>
</mxfile>
